<svg width="27" height="35" viewBox="0 0 27 35" fill="none" xmlns="http://www.w3.org/2000/svg">
<path d="M13.5003 2.43997C13.4075 2.43997 13.3185 2.40311 13.2529 2.3375C13.1873 2.27189 13.1504 2.18291 13.1504 2.09012V0.361445C13.1489 0.314533 13.1569 0.267797 13.1738 0.224015C13.1907 0.180232 13.2162 0.140296 13.2489 0.106579C13.2816 0.0728619 13.3206 0.0460525 13.3639 0.0277436C13.4071 0.00943475 13.4535 0 13.5005 0C13.5474 0 13.5939 0.00943475 13.6371 0.0277436C13.6803 0.0460525 13.7194 0.0728619 13.7521 0.106579C13.7847 0.140296 13.8102 0.180232 13.8272 0.224015C13.8441 0.267797 13.852 0.314533 13.8505 0.361445V2.09012C13.8505 2.13609 13.8414 2.18162 13.8238 2.22409C13.8062 2.26655 13.7804 2.30514 13.7479 2.33763C13.7154 2.37012 13.6768 2.39588 13.6343 2.41344C13.5918 2.431 13.5463 2.44002 13.5003 2.43997Z" fill="white"/>
<path d="M21.5679 5.78182C21.4987 5.78181 21.431 5.76127 21.3734 5.72281C21.3159 5.68435 21.271 5.62969 21.2445 5.56574C21.218 5.50179 21.211 5.43141 21.2245 5.3635C21.2379 5.29559 21.2712 5.23319 21.3201 5.18419L22.5428 3.96189C22.6088 3.89807 22.6973 3.86275 22.7891 3.86354C22.881 3.86432 22.9688 3.90116 23.0338 3.9661C23.0987 4.03104 23.1356 4.1189 23.1363 4.21073C23.1371 4.30257 23.1018 4.39105 23.038 4.45709L21.8153 5.67939C21.7828 5.71187 21.7443 5.73764 21.7018 5.75521C21.6594 5.77279 21.6139 5.78183 21.5679 5.78182Z" fill="white"/>
<path d="M4.20939 23.1404C4.14019 23.1403 4.07257 23.1197 4.01506 23.0812C3.95754 23.0427 3.91272 22.9881 3.88625 22.9241C3.85978 22.8602 3.85285 22.7899 3.86632 22.722C3.8798 22.6541 3.91309 22.5917 3.96198 22.5428L5.18428 21.3205C5.25058 21.2582 5.3385 21.2242 5.42943 21.2256C5.52036 21.227 5.60718 21.2638 5.67151 21.3281C5.73584 21.3924 5.77264 21.4791 5.77412 21.5701C5.77561 21.661 5.74167 21.7489 5.67947 21.8153L4.45717 23.038C4.42462 23.0705 4.38599 23.0962 4.34347 23.1138C4.30096 23.1314 4.2554 23.1404 4.20939 23.1404Z" fill="white"/>
<path d="M26.6385 13.8501H24.9098C24.8629 13.8516 24.8161 13.8437 24.7724 13.8268C24.7286 13.8099 24.6886 13.7843 24.6549 13.7517C24.6212 13.719 24.5944 13.6799 24.5761 13.6367C24.5578 13.5935 24.5483 13.547 24.5483 13.5001C24.5483 13.4532 24.5578 13.4067 24.5761 13.3635C24.5944 13.3203 24.6212 13.2812 24.6549 13.2485C24.6886 13.2159 24.7286 13.1903 24.7724 13.1734C24.8161 13.1565 24.8629 13.1486 24.9098 13.1501H26.6385C26.6854 13.1486 26.7321 13.1565 26.7759 13.1734C26.8197 13.1903 26.8596 13.2159 26.8933 13.2485C26.927 13.2812 26.9539 13.3203 26.9722 13.3635C26.9905 13.4067 26.9999 13.4532 26.9999 13.5001C26.9999 13.547 26.9905 13.5935 26.9722 13.6367C26.9539 13.6799 26.927 13.719 26.8933 13.7517C26.8596 13.7843 26.8197 13.8099 26.7759 13.8268C26.7321 13.8437 26.6854 13.8516 26.6385 13.8501Z" fill="white"/>
<path d="M2.09012 13.8501H0.361445C0.314533 13.8516 0.267797 13.8437 0.224015 13.8268C0.180232 13.8099 0.140296 13.7843 0.106579 13.7517C0.0728619 13.719 0.0460525 13.6799 0.0277436 13.6367C0.00943475 13.5935 0 13.547 0 13.5001C0 13.4532 0.00943475 13.4067 0.0277436 13.3635C0.0460525 13.3203 0.0728619 13.2812 0.106579 13.2485C0.140296 13.2159 0.180232 13.1903 0.224015 13.1734C0.267797 13.1565 0.314533 13.1486 0.361445 13.1501H2.09012C2.18101 13.153 2.2672 13.1912 2.33046 13.2565C2.39372 13.3218 2.42909 13.4092 2.42909 13.5001C2.42909 13.591 2.39372 13.6784 2.33046 13.7437C2.2672 13.8091 2.18101 13.8472 2.09012 13.8501Z" fill="white"/>
<path d="M22.7902 23.1404C22.7443 23.1404 22.6988 23.1314 22.6563 23.1138C22.6139 23.0962 22.5753 23.0704 22.5428 23.038L21.3202 21.8153C21.258 21.7489 21.224 21.661 21.2255 21.5701C21.227 21.4791 21.2638 21.3924 21.3281 21.3281C21.3925 21.2638 21.4793 21.227 21.5702 21.2256C21.6611 21.2242 21.7491 21.2582 21.8154 21.3205L23.038 22.5428C23.0869 22.5918 23.1202 22.6542 23.1337 22.7221C23.1472 22.79 23.1402 22.8603 23.1137 22.9243C23.0872 22.9883 23.0423 23.0429 22.9847 23.0814C22.9271 23.1198 22.8595 23.1404 22.7902 23.1404Z" fill="white"/>
<path d="M5.43209 5.78182C5.38609 5.78186 5.34053 5.77283 5.29802 5.75526C5.2555 5.73768 5.21687 5.7119 5.18432 5.67939L3.96202 4.45709C3.8982 4.39105 3.86287 4.30257 3.86366 4.21073C3.86445 4.1189 3.90128 4.03104 3.96622 3.9661C4.03116 3.90116 4.11902 3.86432 4.21086 3.86354C4.3027 3.86275 4.39117 3.89807 4.45721 3.96189L5.67951 5.18419C5.7284 5.23317 5.76169 5.29553 5.77516 5.36341C5.78864 5.43129 5.78171 5.50163 5.75524 5.56557C5.72877 5.62951 5.68395 5.68417 5.62643 5.72266C5.56892 5.76115 5.5013 5.78173 5.43209 5.78182Z" fill="white"/>
<path d="M17.9065 3.3253C17.8486 3.32556 17.7916 3.31149 17.7405 3.28435C17.6895 3.25721 17.6459 3.21784 17.6138 3.16976C17.5816 3.12168 17.5619 3.06639 17.5563 3.00882C17.5507 2.95125 17.5595 2.8932 17.5819 2.83985L18.2495 1.24534C18.2667 1.20212 18.2923 1.16277 18.3249 1.12957C18.3575 1.09638 18.3963 1.07 18.4392 1.05199C18.4821 1.03397 18.5281 1.02468 18.5746 1.02466C18.6211 1.02463 18.6672 1.03387 18.7101 1.05184C18.753 1.0698 18.7919 1.09614 18.8245 1.1293C18.8571 1.16246 18.8828 1.20178 18.9001 1.24498C18.9173 1.28817 18.9258 1.33437 18.925 1.38087C18.9242 1.42738 18.9141 1.47326 18.8954 1.51584L18.2293 3.11035C18.2026 3.17402 18.1578 3.2284 18.1004 3.26665C18.0429 3.3049 17.9755 3.3253 17.9065 3.3253Z" fill="white"/>
<path d="M24.0579 9.52366C23.9767 9.52396 23.8979 9.49603 23.8351 9.44465C23.7722 9.39327 23.7291 9.32163 23.7132 9.24199C23.6973 9.16235 23.7096 9.07967 23.7479 9.00808C23.7863 8.9365 23.8483 8.88046 23.9234 8.84957L25.523 8.19388C25.6091 8.15863 25.7056 8.15902 25.7914 8.19497C25.8772 8.23092 25.9452 8.29948 25.9805 8.38557C26.0157 8.47166 26.0153 8.56823 25.9794 8.65403C25.9434 8.73983 25.8749 8.80783 25.7888 8.84308L24.1903 9.49661C24.1484 9.51429 24.1034 9.52349 24.0579 9.52366Z" fill="white"/>
<path d="M1.34251 18.832C1.26146 18.8318 1.18295 18.8036 1.12038 18.7521C1.05781 18.7006 1.01505 18.6289 0.999396 18.5494C0.983737 18.4699 0.996149 18.3874 1.03451 18.316C1.07288 18.2446 1.13483 18.1887 1.20979 18.1579L2.80934 17.5036C2.89543 17.4684 2.99198 17.4689 3.07774 17.5048C3.16351 17.5408 3.23147 17.6094 3.26667 17.6955C3.30187 17.7816 3.30143 17.8781 3.26545 17.9639C3.22946 18.0497 3.16088 18.1176 3.07479 18.1528L1.47524 18.8056C1.43311 18.8229 1.38804 18.8318 1.34251 18.832Z" fill="white"/>
<path d="M25.6187 18.9241C25.5723 18.924 25.5265 18.9147 25.4838 18.8967L23.8889 18.2291C23.8049 18.1922 23.7387 18.1237 23.7047 18.0384C23.6706 17.9532 23.6714 17.858 23.7069 17.7733C23.7423 17.6886 23.8096 17.6212 23.8943 17.5857C23.9789 17.5501 24.0741 17.5492 24.1594 17.5832L25.7539 18.2508C25.8286 18.282 25.8902 18.3381 25.9282 18.4096C25.9662 18.4811 25.9783 18.5635 25.9623 18.6429C25.9464 18.7223 25.9034 18.7937 25.8408 18.8449C25.7781 18.8962 25.6996 18.9242 25.6187 18.9241Z" fill="white"/>
<path d="M2.97522 9.44358C2.92877 9.44344 2.88281 9.43413 2.83997 9.41617L1.24546 8.74858C1.20225 8.73138 1.16289 8.70574 1.12969 8.67316C1.0965 8.64058 1.07012 8.60172 1.05211 8.55883C1.0341 8.51595 1.02481 8.46991 1.02478 8.4234C1.02475 8.37689 1.03399 8.33084 1.05196 8.28793C1.06993 8.24503 1.09626 8.20614 1.12942 8.17352C1.16258 8.14091 1.2019 8.11523 1.2451 8.09798C1.28829 8.08073 1.33449 8.07225 1.381 8.07305C1.4275 8.07385 1.47338 8.0839 1.51596 8.10262L3.11047 8.77022C3.18517 8.80142 3.24676 8.85754 3.28476 8.92903C3.32275 9.00052 3.3348 9.08297 3.31886 9.16234C3.30291 9.24171 3.25996 9.31311 3.19731 9.36439C3.13466 9.41567 3.05618 9.44365 2.97522 9.44358Z" fill="white"/>
<path d="M9.17218 3.29299C9.10271 3.29323 9.03473 3.27277 8.97692 3.23423C8.91911 3.19569 8.87409 3.14081 8.84758 3.07659L8.19406 1.47487C8.15885 1.38878 8.15929 1.29223 8.19528 1.20647C8.23126 1.1207 8.29984 1.05274 8.38593 1.01754C8.47202 0.982341 8.56857 0.98278 8.65433 1.01876C8.7401 1.05475 8.80806 1.12333 8.84326 1.20942L9.49678 2.80897C9.51424 2.8515 9.52314 2.89706 9.52297 2.94303C9.52281 2.989 9.51359 3.03449 9.49584 3.07689C9.47809 3.1193 9.45215 3.15779 9.41951 3.19017C9.38688 3.22254 9.34818 3.24817 9.30563 3.26558C9.26342 3.28351 9.21805 3.29283 9.17218 3.29299Z" fill="white"/>
<path d="M16.5658 30.1565H10.6534C10.4932 30.1565 10.3396 30.0928 10.2263 29.9795C10.113 29.8662 10.0493 29.7126 10.0493 29.5524C10.0493 29.3921 10.113 29.2385 10.2263 29.1252C10.3396 29.0119 10.4932 28.9482 10.6534 28.9482H16.5658C16.6452 28.9482 16.7238 28.9638 16.7971 28.9941C16.8705 29.0245 16.9371 29.069 16.9933 29.1251C17.0494 29.1812 17.0939 29.2478 17.1243 29.3211C17.1547 29.3944 17.1703 29.473 17.1703 29.5524C17.1703 29.6317 17.1547 29.7103 17.1243 29.7836C17.0939 29.8569 17.0494 29.9236 16.9933 29.9797C16.9371 30.0358 16.8705 30.0803 16.7971 30.1106C16.7238 30.1409 16.6452 30.1565 16.5658 30.1565Z" fill="white"/>
<path d="M16.5658 32.0539H10.6534C10.4932 32.0539 10.3396 31.9903 10.2263 31.877C10.113 31.7637 10.0493 31.61 10.0493 31.4498C10.0493 31.2896 10.113 31.1359 10.2263 31.0226C10.3396 30.9094 10.4932 30.8457 10.6534 30.8457H16.5658C16.6452 30.8457 16.7238 30.8612 16.7971 30.8916C16.8705 30.9219 16.9371 30.9664 16.9933 31.0225C17.0494 31.0786 17.0939 31.1452 17.1243 31.2186C17.1547 31.2919 17.1703 31.3705 17.1703 31.4498C17.1703 31.5292 17.1547 31.6078 17.1243 31.6811C17.0939 31.7544 17.0494 31.821 16.9933 31.8771C16.9371 31.9332 16.8705 31.9777 16.7971 32.0081C16.7238 32.0384 16.6452 32.054 16.5658 32.0539Z" fill="white"/>
<path d="M12.1751 32.769C12.1407 32.7691 12.1068 32.7767 12.0757 32.7914C12.0446 32.806 12.0171 32.8272 11.9951 32.8537C11.9731 32.8801 11.9572 32.911 11.9485 32.9442C11.9398 32.9775 11.9384 33.0122 11.9446 33.046C12.0168 33.4304 12.2211 33.7774 12.5221 34.027C12.8231 34.2767 13.2018 34.4134 13.5929 34.4134C13.9839 34.4134 14.3627 34.2767 14.6637 34.027C14.9646 33.7774 15.1689 33.4304 15.2411 33.046C15.2474 33.0122 15.2461 32.9774 15.2374 32.9442C15.2287 32.9109 15.2128 32.88 15.1908 32.8535C15.1688 32.8271 15.1413 32.8058 15.1101 32.7912C15.079 32.7766 15.045 32.7691 15.0106 32.769H12.1751Z" fill="white"/>
<path d="M15.9409 28.1869H11.192C10.7933 28.1856 10.4098 28.0342 10.1176 27.763C9.82543 27.4917 9.64606 27.1204 9.61517 26.723C9.41391 24.0461 8.32181 22.3499 7.16516 20.5556C5.90282 18.5971 4.59973 16.5724 4.59973 13.2979C4.59973 8.87609 7.76278 5.15509 12.1204 4.44999C13.1501 4.28501 14.2004 4.2972 15.2261 4.48605C19.461 5.27699 22.5335 8.98285 22.5335 13.2964C22.5335 16.5709 21.2294 18.5957 19.9681 20.5541C18.8115 22.3499 17.719 24.0461 17.5177 26.7215C17.4872 27.1193 17.308 27.4909 17.0158 27.7625C16.7236 28.034 16.3398 28.1855 15.9409 28.1869ZM13.5655 5.50097C13.1443 5.50089 12.7238 5.53454 12.3079 5.60159C8.51838 6.21473 5.76793 9.45027 5.76793 13.2964C5.76793 16.2276 6.92207 18.0212 8.14833 19.9222C9.33276 21.7616 10.5576 23.6634 10.7812 26.6357C10.7891 26.7395 10.8358 26.8366 10.9118 26.9077C10.9879 26.9788 11.0879 27.0188 11.192 27.0198H15.9409C16.0458 27.0205 16.1469 26.9811 16.2238 26.9097C16.3006 26.8383 16.3472 26.7403 16.3542 26.6357C16.5775 23.6634 17.8023 21.7613 18.9871 19.9222C20.2108 18.0222 21.3675 16.2276 21.3675 13.2964C21.3675 9.54549 18.6953 6.32112 15.0133 5.63297C14.5358 5.54428 14.0512 5.49985 13.5655 5.50025V5.50097Z" fill="white"/>
<path d="M9.22259 18.9137C9.1305 18.9139 9.0397 18.8922 8.95762 18.8505C8.87555 18.8087 8.80456 18.7481 8.75047 18.6735C5.51096 14.2244 7.89894 10.0482 8.00209 9.87327C8.08157 9.74219 8.20943 9.64766 8.35805 9.61009C8.50666 9.57252 8.66409 9.59493 8.79631 9.67248C8.92854 9.75003 9.02494 9.8765 9.06468 10.0245C9.10442 10.1726 9.08432 10.3303 9.00871 10.4637C8.91963 10.6177 6.91684 14.1739 9.69398 17.9876C9.75742 18.0745 9.79555 18.1773 9.80416 18.2846C9.81277 18.3919 9.79151 18.4995 9.74275 18.5955C9.69398 18.6914 9.61961 18.772 9.52787 18.8283C9.43612 18.8846 9.33059 18.9144 9.22295 18.9145L9.22259 18.9137Z" fill="white"/>
</svg>
