<svg width="27" height="34" viewBox="0 0 27 34" fill="none" xmlns="http://www.w3.org/2000/svg">
<path d="M13.5002 2.41068C13.4074 2.41068 13.3184 2.37426 13.2528 2.30944C13.1872 2.24462 13.1503 2.1567 13.1503 2.06503V0.357105C13.1488 0.310757 13.1568 0.264582 13.1737 0.221325C13.1906 0.178068 13.2161 0.138611 13.2488 0.105299C13.2814 0.0719872 13.3205 0.0454996 13.3637 0.0274106C13.407 0.00932148 13.4534 0 13.5004 0C13.5473 0 13.5937 0.00932148 13.637 0.0274106C13.6802 0.0454996 13.7193 0.0719872 13.7519 0.105299C13.7846 0.138611 13.8101 0.178068 13.827 0.221325C13.8439 0.264582 13.8519 0.310757 13.8504 0.357105V2.06503C13.8504 2.11045 13.8413 2.15542 13.8237 2.19738C13.8061 2.23934 13.7803 2.27746 13.7478 2.30956C13.7153 2.34166 13.6767 2.36712 13.6342 2.38447C13.5917 2.40182 13.5461 2.41072 13.5002 2.41068Z" fill="#438AFF"/>
<path d="M21.5679 5.71249C21.4987 5.71241 21.4311 5.69207 21.3736 5.65405C21.3161 5.61602 21.2712 5.56201 21.2448 5.49884C21.2183 5.43567 21.2114 5.36617 21.2248 5.29911C21.2383 5.23205 21.2716 5.17043 21.3205 5.12204L22.5428 3.91442C22.6088 3.85136 22.6973 3.81647 22.7892 3.81724C22.881 3.81802 22.9688 3.85441 23.0338 3.91857C23.0987 3.98273 23.1356 4.06953 23.1363 4.16027C23.1371 4.25101 23.1018 4.33842 23.038 4.40367L21.8153 5.61129C21.7828 5.6434 21.7443 5.66887 21.7018 5.68624C21.6594 5.7036 21.6139 5.71252 21.5679 5.71249Z" fill="#438AFF"/>
<path d="M4.20939 22.8626C4.14019 22.8625 4.07257 22.8422 4.01506 22.8042C3.95754 22.7661 3.91272 22.7121 3.88625 22.649C3.85978 22.5858 3.85285 22.5163 3.86632 22.4492C3.8798 22.3822 3.91309 22.3206 3.96198 22.2722L5.18428 21.0642C5.21659 21.0312 5.25523 21.0048 5.29795 20.9867C5.34068 20.9686 5.38662 20.959 5.43312 20.9586C5.47961 20.9582 5.52572 20.967 5.56875 20.9844C5.61178 21.0018 5.65087 21.0275 5.68375 21.06C5.71663 21.0924 5.74263 21.1311 5.76024 21.1736C5.77784 21.2161 5.78671 21.2616 5.78631 21.3076C5.78591 21.3535 5.77626 21.3989 5.75792 21.4411C5.73957 21.4833 5.71291 21.5215 5.67947 21.5534L4.45717 22.7611C4.42469 22.7933 4.38607 22.8189 4.34355 22.8363C4.30103 22.8537 4.25543 22.8627 4.20939 22.8626Z" fill="#438AFF"/>
<path d="M26.6386 13.6838H24.9099C24.863 13.6853 24.8163 13.6774 24.7725 13.6607C24.7287 13.644 24.6888 13.6188 24.655 13.5865C24.6213 13.5542 24.5945 13.5156 24.5762 13.4729C24.5579 13.4302 24.5485 13.3843 24.5485 13.3379C24.5485 13.2916 24.5579 13.2457 24.5762 13.203C24.5945 13.1603 24.6213 13.1217 24.655 13.0894C24.6888 13.0571 24.7287 13.0319 24.7725 13.0152C24.8163 12.9985 24.863 12.9906 24.9099 12.9921H26.6386C26.6855 12.9906 26.7322 12.9985 26.776 13.0152C26.8198 13.0319 26.8597 13.0571 26.8934 13.0894C26.9272 13.1217 26.954 13.1603 26.9723 13.203C26.9906 13.2457 27 13.2916 27 13.3379C27 13.3843 26.9906 13.4302 26.9723 13.4729C26.954 13.5156 26.9272 13.5542 26.8934 13.5865C26.8597 13.6188 26.8198 13.644 26.776 13.6607C26.7322 13.6774 26.6855 13.6853 26.6386 13.6838Z" fill="#438AFF"/>
<path d="M2.09012 13.6837H0.361445C0.314533 13.6852 0.267797 13.6774 0.224015 13.6607C0.180232 13.644 0.140296 13.6187 0.106579 13.5865C0.0728619 13.5542 0.0460525 13.5156 0.0277436 13.4729C0.00943475 13.4302 0 13.3843 0 13.3379C0 13.2915 0.00943475 13.2456 0.0277436 13.2029C0.0460525 13.1602 0.0728619 13.1216 0.106579 13.0894C0.140296 13.0571 0.180232 13.0319 0.224015 13.0152C0.267797 12.9984 0.314533 12.9906 0.361445 12.9921H2.09012C2.13703 12.9906 2.18377 12.9984 2.22755 13.0152C2.27133 13.0319 2.31127 13.0571 2.34499 13.0894C2.3787 13.1216 2.40551 13.1602 2.42382 13.2029C2.44213 13.2456 2.45157 13.2915 2.45157 13.3379C2.45157 13.3843 2.44213 13.4302 2.42382 13.4729C2.40551 13.5156 2.3787 13.5542 2.34499 13.5865C2.31127 13.6187 2.27133 13.644 2.22755 13.6607C2.18377 13.6774 2.13703 13.6852 2.09012 13.6837Z" fill="#438AFF"/>
<path d="M22.7903 22.8626C22.7443 22.8627 22.6988 22.8537 22.6563 22.8363C22.6139 22.8188 22.5753 22.7933 22.5429 22.7611L21.3206 21.5535C21.2583 21.4879 21.2243 21.4011 21.2258 21.3112C21.2272 21.2214 21.2639 21.1356 21.3282 21.0721C21.3925 21.0085 21.4793 20.9722 21.5702 20.9707C21.6611 20.9692 21.7491 21.0028 21.8154 21.0642L23.0381 22.2722C23.087 22.3206 23.1203 22.3822 23.1337 22.4493C23.1472 22.5164 23.1402 22.586 23.1137 22.6491C23.0872 22.7123 23.0423 22.7663 22.9848 22.8043C22.9272 22.8423 22.8595 22.8626 22.7903 22.8626Z" fill="#438AFF"/>
<path d="M5.4321 5.71249C5.38609 5.71253 5.34053 5.70361 5.29802 5.68625C5.2555 5.66888 5.21687 5.64342 5.18432 5.61129L3.96202 4.40367C3.8982 4.33842 3.86287 4.25101 3.86366 4.16027C3.86445 4.06953 3.90128 3.98273 3.96622 3.91857C4.03116 3.85441 4.11902 3.81802 4.21086 3.81724C4.3027 3.81647 4.39117 3.85136 4.45721 3.91442L5.67951 5.12204C5.7284 5.17043 5.76169 5.23205 5.77516 5.29911C5.78864 5.36617 5.78171 5.43567 5.75524 5.49884C5.72877 5.56201 5.68395 5.61602 5.62643 5.65405C5.56892 5.69207 5.5013 5.71241 5.4321 5.71249Z" fill="#438AFF"/>
<path d="M17.9066 3.28549C17.8487 3.28575 17.7917 3.27185 17.7407 3.24503C17.6896 3.21822 17.646 3.17932 17.6139 3.13182C17.5817 3.08431 17.562 3.02968 17.5564 2.97281C17.5509 2.91593 17.5596 2.85857 17.582 2.80586L18.2499 1.2305C18.2677 1.18862 18.2936 1.1506 18.3263 1.11862C18.3589 1.08665 18.3976 1.06133 18.4401 1.04413C18.4827 1.02692 18.5282 1.01816 18.5742 1.01834C18.6201 1.01853 18.6656 1.02766 18.708 1.0452C18.7504 1.06275 18.7888 1.08838 18.8212 1.12062C18.8536 1.15286 18.8792 1.19108 18.8966 1.2331C18.914 1.27513 18.9229 1.32013 18.9227 1.36553C18.9225 1.41094 18.9133 1.45587 18.8955 1.49775L18.2294 3.07312C18.2028 3.13602 18.1579 3.18975 18.1005 3.22754C18.0431 3.26533 17.9756 3.28549 17.9066 3.28549Z" fill="#438AFF"/>
<path d="M24.0581 9.40947C23.9769 9.40977 23.8981 9.38218 23.8352 9.33142C23.7723 9.28065 23.7292 9.20987 23.7133 9.13119C23.6974 9.05251 23.7097 8.97081 23.748 8.90009C23.7864 8.82936 23.8484 8.774 23.9235 8.74348L25.5235 8.09566C25.6095 8.06088 25.7061 8.06131 25.7919 8.09687C25.8776 8.13242 25.9456 8.20017 25.9808 8.28523C26.016 8.37029 26.0155 8.46567 25.9796 8.55041C25.9436 8.63514 25.875 8.70229 25.7889 8.73707L24.1904 9.38275C24.1485 9.40022 24.1035 9.4093 24.0581 9.40947Z" fill="#438AFF"/>
<path d="M1.34241 18.6055C1.26112 18.6058 1.18226 18.5781 1.11938 18.5272C1.05649 18.4763 1.01351 18.4054 0.997802 18.3266C0.982098 18.2478 0.994658 18.1661 1.03332 18.0954C1.07199 18.0248 1.13434 17.9696 1.20968 17.9395L2.80924 17.2934C2.89533 17.2587 2.99188 17.2591 3.07764 17.2947C3.16341 17.3302 3.23136 17.398 3.26657 17.483C3.30177 17.5681 3.30133 17.6635 3.26534 17.7482C3.22936 17.8329 3.16078 17.9001 3.07469 17.9348L1.47513 18.5798C1.43298 18.5968 1.38791 18.6055 1.34241 18.6055Z" fill="#438AFF"/>
<path d="M25.6187 18.6971C25.5723 18.697 25.5265 18.6878 25.4838 18.67L23.8893 18.0104C23.8457 17.9937 23.8059 17.9686 23.7722 17.9364C23.7386 17.9043 23.7119 17.8658 23.6935 17.8233C23.6752 17.7808 23.6657 17.7351 23.6655 17.6889C23.6654 17.6427 23.6746 17.5969 23.6926 17.5542C23.7107 17.5116 23.7372 17.473 23.7706 17.4406C23.804 17.4083 23.8436 17.3829 23.8872 17.3659C23.9307 17.3489 23.9772 17.3407 24.0239 17.3418C24.0707 17.3429 24.1168 17.3532 24.1594 17.3722L25.7539 18.0318C25.8286 18.0626 25.8902 18.118 25.9282 18.1887C25.9662 18.2593 25.9783 18.3408 25.9623 18.4192C25.9464 18.4976 25.9034 18.5682 25.8408 18.6188C25.7781 18.6695 25.6996 18.6971 25.6187 18.6971Z" fill="#438AFF"/>
<path d="M2.97522 9.33039C2.92888 9.33029 2.88303 9.32108 2.84033 9.30331L1.24546 8.64373C1.20225 8.62673 1.16289 8.6014 1.12969 8.56921C1.0965 8.53703 1.07012 8.49863 1.05211 8.45626C1.0341 8.41389 1.02481 8.36841 1.02478 8.32245C1.02475 8.2765 1.03399 8.231 1.05196 8.18861C1.06993 8.14623 1.09626 8.1078 1.12942 8.07558C1.16258 8.04335 1.2019 8.01798 1.2451 8.00094C1.28829 7.98389 1.33449 7.97552 1.381 7.97631C1.4275 7.9771 1.47338 7.98703 1.51596 8.00553L3.11047 8.66511C3.18517 8.69593 3.24676 8.75138 3.28476 8.82201C3.32275 8.89264 3.3348 8.9741 3.31886 9.05252C3.30291 9.13094 3.25996 9.20148 3.19731 9.25215C3.13466 9.30281 3.05618 9.33045 2.97522 9.33039Z" fill="#438AFF"/>
<path d="M9.17218 3.25376C9.10271 3.254 9.03473 3.23379 8.97692 3.19571C8.91911 3.15764 8.87409 3.10341 8.84758 3.03996L8.19406 1.45747C8.15885 1.37241 8.15929 1.27702 8.19528 1.19229C8.23126 1.10755 8.29984 1.04041 8.38593 1.00563C8.47202 0.970854 8.56857 0.971288 8.65433 1.00684C8.7401 1.04239 8.80806 1.11015 8.84326 1.1952L9.49678 2.77556C9.51872 2.8282 9.52718 2.88538 9.52142 2.94202C9.51566 2.99867 9.49586 3.05304 9.46376 3.10032C9.43167 3.1476 9.38827 3.18634 9.33742 3.2131C9.28656 3.23987 9.22981 3.25383 9.17218 3.25376Z" fill="#438AFF"/>
<path d="M16.5659 29.7945H10.651C10.4908 29.7945 10.3371 29.7316 10.2238 29.6196C10.1105 29.5077 10.0469 29.3559 10.0469 29.1976C10.0468 29.1192 10.0624 29.0415 10.0928 28.9691C10.1231 28.8966 10.1676 28.8308 10.2237 28.7753C10.2798 28.7199 10.3464 28.6759 10.4197 28.6458C10.493 28.6158 10.5716 28.6004 10.651 28.6004H16.5659C16.6453 28.6004 16.7239 28.6158 16.7972 28.6458C16.8705 28.6759 16.9371 28.7199 16.9932 28.7753C17.0493 28.8308 17.0938 28.8966 17.1242 28.9691C17.1545 29.0415 17.1701 29.1192 17.17 29.1976C17.17 29.3559 17.1064 29.5077 16.9931 29.6196C16.8798 29.7316 16.7262 29.7945 16.5659 29.7945Z" fill="#438AFF"/>
<path d="M16.5659 31.6691H10.651C10.4908 31.6691 10.3371 31.6062 10.2238 31.4943C10.1105 31.3824 10.0469 31.2306 10.0469 31.0723C10.0469 30.914 10.1105 30.7622 10.2238 30.6502C10.3371 30.5383 10.4908 30.4754 10.651 30.4754H16.5659C16.7262 30.4754 16.8798 30.5383 16.9931 30.6502C17.1064 30.7622 17.17 30.914 17.17 31.0723C17.17 31.2306 17.1064 31.3824 16.9931 31.4943C16.8798 31.6062 16.7262 31.6691 16.5659 31.6691Z" fill="#438AFF"/>
<path d="M12.1752 32.375C12.1408 32.3751 12.1068 32.3826 12.0757 32.3971C12.0445 32.4116 12.017 32.4326 11.995 32.4587C11.973 32.4849 11.9571 32.5155 11.9484 32.5484C11.9397 32.5813 11.9384 32.6156 11.9447 32.6491C12.0169 33.0288 12.2212 33.3716 12.5221 33.6183C12.8231 33.865 13.2019 34 13.5929 34C13.984 34 14.3628 33.865 14.6637 33.6183C14.9647 33.3716 15.169 33.0288 15.2412 32.6491C15.2475 32.6156 15.2463 32.5812 15.2376 32.5483C15.2289 32.5154 15.213 32.4848 15.191 32.4586C15.169 32.4325 15.1415 32.4114 15.1103 32.397C15.0791 32.3825 15.0451 32.375 15.0107 32.375H12.1752Z" fill="#438AFF"/>
<path d="M15.9408 27.8485H11.1919C10.7932 27.8472 10.4096 27.6977 10.1175 27.4297C9.82531 27.1617 9.64594 26.7948 9.61504 26.4021C9.41379 23.7574 8.32169 22.0816 7.16503 20.3088C5.9027 18.3739 4.59961 16.3734 4.59961 13.1382C4.59961 8.76952 7.76266 5.09319 12.1202 4.39655C13.15 4.23337 14.2003 4.24542 15.2259 4.43219C19.4609 5.21363 22.5334 8.87499 22.5334 13.1368C22.5334 16.372 21.2292 18.3724 19.968 20.3074C18.8113 22.0816 17.7189 23.7574 17.5176 26.4007C17.4871 26.7937 17.3078 27.1608 17.0156 27.4291C16.7234 27.6974 16.3397 27.8472 15.9408 27.8485Z" fill="#438AFF"/>
<path d="M9.22271 18.6867C9.13062 18.6869 9.03982 18.6654 8.95775 18.6242C8.87567 18.5829 8.80468 18.523 8.75059 18.4494C5.51108 14.0536 7.89906 9.92761 8.00221 9.75478C8.08169 9.62528 8.20955 9.53188 8.35817 9.49476C8.50678 9.45764 8.66421 9.47978 8.79643 9.55641C8.92866 9.63303 9.02506 9.75797 9.0648 9.90424C9.10454 10.0505 9.08444 10.2064 9.00883 10.3381C8.91975 10.4903 6.91696 14.0037 9.6941 17.7716C9.75754 17.8576 9.79567 17.9592 9.80428 18.0652C9.81289 18.1712 9.79163 18.2775 9.74287 18.3723C9.6941 18.4671 9.61973 18.5467 9.52799 18.6023C9.43624 18.658 9.33071 18.6874 9.22307 18.6874L9.22271 18.6867Z" fill="#FBFBFB"/>
</svg>
