<svg width="44" height="44" viewBox="0 0 44 44" fill="none" xmlns="http://www.w3.org/2000/svg">
<path d="M22 4.51172C18.5411 4.51172 15.16 5.53738 12.2841 7.459C9.40818 9.38062 7.16669 12.1119 5.84305 15.3074C4.51942 18.503 4.1731 22.0192 4.84788 25.4116C5.52266 28.804 7.18824 31.92 9.634 34.3658C12.0798 36.8116 15.1958 38.4771 18.5882 39.1519C21.9806 39.8267 25.4968 39.4804 28.6924 38.1568C31.8879 36.8331 34.6192 34.5916 36.5408 31.7157C38.4624 28.8398 39.4881 25.4587 39.4881 21.9998C39.4833 17.3632 37.6392 12.9178 34.3606 9.63921C31.082 6.3606 26.6366 4.51655 22 4.51172ZM22 37.6156C18.9115 37.6156 15.8923 36.6998 13.3243 34.9839C10.7563 33.268 8.75479 30.8292 7.57287 27.9757C6.39095 25.1223 6.0817 21.9825 6.68424 18.9534C7.28678 15.9242 8.77404 13.1417 10.9579 10.9578C13.1419 8.77391 15.9243 7.28665 18.9535 6.68411C21.9826 6.08157 25.1225 6.39082 27.9759 7.57274C30.8293 8.75466 33.2681 10.7562 34.984 13.3242C36.6999 15.8922 37.6157 18.9113 37.6157 21.9998C37.6109 26.1399 35.9641 30.109 33.0367 33.0365C30.1092 35.964 26.14 37.6108 22 37.6156Z" fill="#438AFF"/>
<path d="M22 0C17.6488 0 13.3953 1.29028 9.77746 3.70767C6.15958 6.12506 3.33979 9.56099 1.67466 13.581C0.00953222 17.6009 -0.426141 22.0244 0.422734 26.292C1.27161 30.5596 3.3669 34.4796 6.44366 37.5563C9.52041 40.6331 13.4404 42.7284 17.708 43.5773C21.9756 44.4261 26.3991 43.9905 30.419 42.3253C34.439 40.6602 37.8749 37.8404 40.2923 34.2225C42.7097 30.6047 44 26.3512 44 22C43.9934 16.1672 41.6735 10.5753 37.5491 6.4509C33.4247 2.32652 27.8328 0.00656625 22 0ZM22 42.1276C18.0191 42.1276 14.1277 40.9472 10.8177 38.7355C7.5077 36.5239 4.92789 33.3804 3.40448 29.7025C1.88106 26.0247 1.48247 21.9777 2.2591 18.0733C3.03573 14.1689 4.9527 10.5825 7.7676 7.76759C10.5825 4.95269 14.1689 3.03572 18.0733 2.25909C21.9777 1.48246 26.0247 1.88105 29.7025 3.40447C33.3804 4.92788 36.5239 7.50769 38.7355 10.8177C40.9472 14.1276 42.1277 18.0191 42.1277 22C42.1216 27.3363 39.9991 32.4523 36.2257 36.2257C32.4523 39.999 27.3363 42.1216 22 42.1276Z" fill="#438AFF"/>
<path d="M24.7978 13.2104H18.2914C18.0431 13.2104 17.805 13.3091 17.6295 13.4846C17.4539 13.6602 17.3553 13.8983 17.3553 14.1466V21.064H16.3966C16.1483 21.064 15.9102 21.1626 15.7346 21.3382C15.5591 21.5137 15.4604 21.7519 15.4604 22.0001C15.4604 22.2484 15.5591 22.4866 15.7346 22.6621C15.9102 22.8377 16.1483 22.9363 16.3966 22.9363H17.3571V25.3268H16.3966C16.1483 25.3268 15.9102 25.4255 15.7346 25.601C15.5591 25.7766 15.4604 26.0147 15.4604 26.263C15.4604 26.5113 15.5591 26.7494 15.7346 26.925C15.9102 27.1005 16.1483 27.1992 16.3966 27.1992H17.3571V30.5263C17.3571 30.7746 17.4558 31.0127 17.6313 31.1883C17.8069 31.3639 18.045 31.4625 18.2933 31.4625C18.5416 31.4625 18.7797 31.3639 18.9553 31.1883C19.1308 31.0127 19.2295 30.7746 19.2295 30.5263V27.1992H26.2339C26.4822 27.1992 26.7203 27.1005 26.8959 26.925C27.0714 26.7494 27.1701 26.5113 27.1701 26.263C27.1701 26.0147 27.0714 25.7766 26.8959 25.601C26.7203 25.4255 26.4822 25.3268 26.2339 25.3268H19.2295V22.9363H24.7997C26.0894 22.9363 27.3263 22.424 28.2383 21.512C29.1503 20.6 29.6626 19.3631 29.6626 18.0734C29.6626 16.7837 29.1503 15.5467 28.2383 14.6348C27.3263 13.7228 26.0894 13.2104 24.7997 13.2104H24.7978ZM24.7978 21.064H19.2276V15.0828H24.7978C25.591 15.0828 26.3516 15.3979 26.9125 15.9587C27.4733 16.5196 27.7884 17.2802 27.7884 18.0734C27.7884 18.8665 27.4733 19.6272 26.9125 20.1881C26.3516 20.7489 25.591 21.064 24.7978 21.064Z" fill="#438AFF"/>
</svg>
