<svg width="38" height="44" viewBox="0 0 38 44" fill="none" xmlns="http://www.w3.org/2000/svg">
<path d="M36.8425 7.59782C30.7887 5.93906 24.6992 3.35622 19.2325 0.128584C18.9421 -0.0428612 18.5818 -0.0428612 18.2915 0.128584C12.6671 3.44894 6.90669 5.89206 0.680967 7.59782C0.278781 7.70791 0 8.07349 0 8.49054V17.9476C0 27.6863 4.49272 34.1326 8.26175 37.8254C12.3194 41.8013 17.0459 44 18.762 44C20.4779 44 25.2045 41.8013 29.2621 37.8254C33.031 34.1327 37.5235 27.6864 37.5235 17.9476V8.49045C37.5235 8.07349 37.2447 7.70791 36.8425 7.59782ZM35.6724 17.9475C35.6724 27.0434 31.482 33.0586 27.9665 36.5031C23.9763 40.4128 19.7101 42.1487 18.762 42.1487C17.8139 42.1487 13.5474 40.4128 9.55717 36.5031C6.04174 33.0585 1.85118 27.0434 1.85118 17.9475V9.19308C7.80474 7.50269 13.3492 5.14363 18.7622 1.99806C24.0399 5.06018 29.8611 7.53655 35.6724 9.19273V17.9475Z" fill="#438AFF"/>
<path d="M10.558 9.08952C10.3706 8.61386 9.83326 8.3802 9.35751 8.56763C7.70408 9.21912 6.00699 9.81879 4.31342 10.3501C3.92748 10.4712 3.66486 10.8287 3.66486 11.2331V14.8074C3.66486 15.3185 4.07933 15.7329 4.5904 15.7329C5.10147 15.7329 5.51594 15.3185 5.51594 14.8074V11.9096C7.03523 11.418 8.55288 10.8743 10.0361 10.2898C10.5117 10.1026 10.7454 9.56519 10.558 9.08952Z" fill="#438AFF"/>
<path d="M12.3162 9.26506C12.4404 9.26506 12.5665 9.24005 12.6874 9.18729L12.7044 9.1799C13.1727 8.97468 13.3836 8.42958 13.1783 7.96148C12.9729 7.49321 12.4247 7.28137 11.957 7.48642L11.942 7.49286C11.4735 7.69748 11.2619 8.24215 11.4665 8.71051C11.6184 9.05821 11.9591 9.26506 12.3162 9.26506Z" fill="#438AFF"/>
<path d="M29.7894 29.8447C29.3617 29.5651 28.7881 29.6853 28.5082 30.1132C27.7455 31.2806 26.8508 32.3985 25.8484 33.4355C25.0241 34.2881 24.1309 35.0829 23.1935 35.7974C22.7871 36.1073 22.7089 36.6881 23.0187 37.0947C23.201 37.3335 23.4766 37.4591 23.7554 37.4591C23.9512 37.4591 24.1484 37.3973 24.316 37.2695C25.327 36.4985 26.2904 35.6415 27.1791 34.7221C28.2629 33.6011 29.2314 32.3912 30.0579 31.1257C30.3377 30.6978 30.2173 30.1242 29.7894 29.8447Z" fill="#438AFF"/>
<path d="M21.044 37.249L20.9909 37.2803C20.5486 37.5365 20.3974 38.1026 20.6535 38.5449C20.8251 38.8414 21.1358 39.0069 21.4554 39.0069C21.6127 39.0069 21.7723 38.9668 21.9182 38.8822L21.9794 38.8461C22.4206 38.5878 22.5687 38.0209 22.3104 37.5798C22.0519 37.1388 21.4849 36.9909 21.044 37.249Z" fill="#438AFF"/>
<path d="M12.453 20.111C11.8847 19.5426 11.1289 19.2298 10.325 19.2298C9.52115 19.2298 8.76525 19.5427 8.19669 20.111C7.02339 21.2846 7.02339 23.1941 8.19669 24.3676L13.662 29.8327C14.2303 30.4009 14.9862 30.7138 15.7901 30.7138C16.5941 30.7138 17.3499 30.4009 17.9183 29.8325L29.3275 18.4233C30.5007 17.2495 30.5007 15.3402 29.3273 14.1671C28.7589 13.5987 28.0031 13.2859 27.1991 13.2859C26.3951 13.2859 25.6393 13.5988 25.0708 14.1671L15.79 23.4479L12.453 20.111ZM26.3798 15.4761C26.5985 15.2574 26.8896 15.137 27.1991 15.137C27.5089 15.137 27.7997 15.2574 28.0186 15.4761C28.4702 15.9277 28.4702 16.6628 28.0184 17.1146L16.6094 28.5236C16.3907 28.7423 16.0997 28.8627 15.7901 28.8627C15.4806 28.8627 15.1895 28.7423 14.9707 28.5236L9.5056 23.0587C9.05383 22.6069 9.05383 21.8718 9.50543 21.4202C9.72422 21.2015 10.0153 21.0809 10.3249 21.0809C10.6346 21.0809 10.9255 21.2013 11.1442 21.42L15.1355 25.4115C15.3092 25.585 15.5445 25.6825 15.79 25.6825C16.0355 25.6825 16.2708 25.5851 16.4443 25.4115L26.3798 15.4761Z" fill="#438AFF"/>
</svg>
