<svg width="48" height="45" viewBox="0 0 48 45" fill="none" xmlns="http://www.w3.org/2000/svg">
<path d="M3.22381 34.718H44.1653C44.3225 34.718 44.4767 34.6742 44.6104 34.5914C44.7441 34.5086 44.8521 34.3902 44.9223 34.2494C46.5563 30.9796 47.4011 27.3723 47.3891 23.717C47.3971 19.0273 46.0123 14.4408 43.4101 10.5392C40.808 6.63756 37.1057 3.59664 32.7729 1.80205C28.4401 0.00745797 23.672 -0.459956 19.0732 0.459087C14.4743 1.37813 10.2521 3.64222 6.94179 6.96424C6.86319 7.04279 6.80084 7.13606 6.7583 7.23872C6.71575 7.34138 6.69386 7.45142 6.69386 7.56255C6.69386 7.67367 6.71575 7.78371 6.7583 7.88637C6.80084 7.98903 6.86319 8.0823 6.94179 8.16086L9.35419 10.5733C6.25535 13.9417 4.4482 18.2979 4.25263 22.8708H1.72565C1.87327 18.4537 3.36521 14.1868 6.00216 10.6401C6.06888 10.5509 6.11734 10.4494 6.14477 10.3415C6.17219 10.2335 6.17805 10.1212 6.16199 10.011C6.14594 9.90082 6.10829 9.79486 6.05121 9.69923C5.99413 9.60359 5.91874 9.52017 5.82935 9.45373C5.73997 9.38729 5.63835 9.33914 5.53033 9.31205C5.4223 9.28495 5.30999 9.27945 5.19983 9.29584C5.08967 9.31223 4.98383 9.35021 4.88838 9.40758C4.79292 9.46496 4.70973 9.54061 4.64356 9.6302C2.05109 13.1365 0.476167 17.29 0.092114 21.6336C-0.291939 25.9773 0.529765 30.3427 2.4668 34.2494C2.53693 34.3902 2.64492 34.5086 2.77865 34.5914C2.91238 34.6742 3.06654 34.718 3.22381 34.718ZM1.71507 24.5632H4.26166C4.38399 27.526 5.18497 30.4212 6.60285 33.0256H3.75443C2.50895 30.3719 1.81515 27.4929 1.71507 24.5632ZM43.6347 33.0256H40.7863C42.2042 30.4212 43.0052 27.526 43.1275 24.5632H45.674C45.574 27.4929 44.8802 30.3719 43.6347 33.0256ZM24.5408 1.73638C29.7866 1.93432 34.7871 4.00877 38.6326 7.58232L36.8484 9.36658C36.1817 8.75853 35.4761 8.19456 34.7361 7.67825C31.7265 5.60663 28.1915 4.43017 24.5408 4.2852V1.73638ZM10.6077 6.02586C14.1606 3.39332 18.4291 1.90163 22.8483 1.74821V4.27506C18.2755 4.47061 13.9193 6.27777 10.5509 9.37662L8.74749 7.5733C9.33835 7.02335 9.95937 6.50673 10.6077 6.02586ZM23.6945 5.94611C27.2928 5.93709 30.8081 7.0263 33.7708 9.06824C34.6605 9.68772 35.4944 10.3836 36.2632 11.1479C36.4217 11.3066 36.6367 11.3958 36.861 11.3959C37.0852 11.3961 37.3003 11.3072 37.459 11.1487L39.8292 8.77894C43.4027 12.6244 45.4772 17.6249 45.6752 22.8708H43.1263C42.9804 19.2229 41.804 15.6909 39.7333 12.6841C39.6703 12.5925 39.5899 12.5142 39.4966 12.4536C39.4033 12.3931 39.299 12.3515 39.1897 12.3313C39.0803 12.3111 38.968 12.3127 38.8593 12.3359C38.7505 12.3591 38.6474 12.4035 38.5558 12.4667C38.4643 12.5298 38.386 12.6103 38.3256 12.7037C38.2652 12.797 38.2238 12.9014 38.2038 13.0108C38.1837 13.1202 38.1854 13.2324 38.2088 13.3412C38.2322 13.4499 38.2768 13.5529 38.34 13.6444C40.2905 16.4805 41.3745 19.8225 41.46 23.2635C41.5454 26.7045 40.6287 30.0961 38.8214 33.0256H8.5677C6.90761 30.3344 5.99625 27.2487 5.9278 24.0874C5.85935 20.9261 6.6363 17.8039 8.17836 15.0433C9.72041 12.2828 11.9716 9.98412 14.6994 8.38482C17.4272 6.78552 20.5325 5.94361 23.6945 5.94611Z" fill="#438AFF"/>
<path d="M20.7891 22.0084C20.4785 22.5244 20.3128 23.1147 20.3096 23.7169C20.3096 24.3864 20.5082 25.0408 20.8801 25.5975C21.252 26.1541 21.7807 26.588 22.3992 26.8442C23.0177 27.1004 23.6983 27.1674 24.3549 27.0368C25.0115 26.9062 25.6147 26.5838 26.0881 26.1104C26.5615 25.637 26.8838 25.0339 27.0145 24.3773C27.1451 23.7207 27.078 23.0401 26.8218 22.4216C26.5656 21.803 26.1318 21.2744 25.5751 20.9025C25.0185 20.5305 24.364 20.332 23.6946 20.332C23.0921 20.3352 22.5017 20.5009 21.9856 20.8117L15.847 14.6724C15.6884 14.5137 15.4731 14.4246 15.2487 14.4246C15.0243 14.4246 14.8091 14.5137 14.6504 14.6724C14.4917 14.8311 14.4026 15.0463 14.4026 15.2707C14.4026 15.4951 14.4917 15.7103 14.6504 15.869L20.7891 22.0084ZM25.387 23.7169C25.387 24.0517 25.2878 24.3789 25.1018 24.6572C24.9158 24.9355 24.6515 25.1525 24.3422 25.2806C24.033 25.4086 23.6927 25.4422 23.3644 25.3769C23.0361 25.3116 22.7345 25.1504 22.4978 24.9137C22.2611 24.677 22.0999 24.3754 22.0346 24.0471C21.9693 23.7188 22.0028 23.3785 22.1309 23.0692C22.259 22.76 22.476 22.4957 22.7543 22.3097C23.0326 22.1237 23.3598 22.0245 23.6946 22.0245C24.1433 22.025 24.5735 22.2034 24.8907 22.5207C25.208 22.838 25.3865 23.2682 25.387 23.7169Z" fill="#438AFF"/>
<path d="M44.0041 37.2568H3.38493C2.48719 37.2568 1.62622 37.6135 0.991423 38.2483C0.356625 38.8831 0 39.744 0 40.6418C0 41.5395 0.356625 42.4005 0.991423 43.0353C1.62622 43.6701 2.48719 44.0267 3.38493 44.0267H44.0041C44.9018 44.0267 45.7628 43.6701 46.3976 43.0353C47.0324 42.4005 47.389 41.5395 47.389 40.6418C47.389 39.744 47.0324 38.8831 46.3976 38.2483C45.7628 37.6135 44.9018 37.2568 44.0041 37.2568ZM44.0041 42.3342H3.38493C2.93606 42.3342 2.50558 42.1559 2.18818 41.8385C1.87078 41.5211 1.69247 41.0906 1.69247 40.6418C1.69247 40.1929 1.87078 39.7624 2.18818 39.445C2.50558 39.1276 2.93606 38.9493 3.38493 38.9493H44.0041C44.453 38.9493 44.8834 39.1276 45.2008 39.445C45.5182 39.7624 45.6966 40.1929 45.6966 40.6418C45.6966 41.0906 45.5182 41.5211 45.2008 41.8385C44.8834 42.1559 44.453 42.3342 44.0041 42.3342Z" fill="#438AFF"/>
</svg>
