<svg width="44" height="44" viewBox="0 0 44 44" fill="none" xmlns="http://www.w3.org/2000/svg">
<path d="M43.3682 19.0119L38.7188 17.7204C38.3136 16.1317 37.686 14.6171 36.8476 13.2052L39.2225 9.00335C39.4132 8.66596 39.3555 8.24285 39.0815 7.96877L36.0312 4.9185C35.7571 4.64447 35.3339 4.58688 34.9966 4.7775L30.7948 7.15246C29.3829 6.31406 27.8683 5.68634 26.2796 5.28121L24.9881 0.631851C24.8844 0.2584 24.5444 0 24.1569 0H19.8431C19.4556 0 19.1156 0.2584 19.0119 0.631851L17.7204 5.28119C16.1317 5.68632 14.6171 6.31404 13.2052 7.15245L9.00334 4.77749C8.66604 4.58674 8.24279 4.64446 7.96876 4.91849L4.91849 7.96876C4.64446 8.24284 4.58679 8.66595 4.77749 9.00334L7.15245 13.2052C6.31404 14.6171 5.68633 16.1317 5.28119 17.7204L0.631851 19.0119C0.2584 19.1156 0 19.4556 0 19.8431V24.1569C0 24.5444 0.2584 24.8844 0.631851 24.9881L5.28119 26.2796C5.68632 27.8683 6.31404 29.3829 7.15245 30.7948L4.77749 34.9966C4.58679 35.334 4.64446 35.7571 4.91849 36.0312L7.96876 39.0815C8.24284 39.3555 8.66599 39.4132 9.00334 39.2225L13.2052 36.8476C14.6171 37.686 16.1316 38.3136 17.7204 38.7188L19.0119 43.3682C19.1156 43.7416 19.4556 44 19.8431 44H24.1569C24.5444 44 24.8844 43.7416 24.9881 43.3682L26.2796 38.7188C27.8683 38.3136 29.3829 37.686 30.7948 36.8476L34.9966 39.2225C35.334 39.4131 35.7571 39.3555 36.0312 39.0815L39.0815 36.0312C39.3555 35.7571 39.4132 35.334 39.2225 34.9966L36.8475 30.7948C37.6859 29.3829 38.3136 27.8683 38.7188 26.2796L43.3682 24.9881C43.7416 24.8844 44 24.5444 44 24.1569V19.8431C44 19.4556 43.7416 19.1156 43.3682 19.0119ZM42.2745 23.5011L37.7671 24.7532C37.4602 24.8384 37.2253 25.0857 37.156 25.3966C36.766 27.1447 36.0804 28.7992 35.118 30.3141C34.9473 30.5829 34.9386 30.9239 35.0952 31.2012L37.3977 35.2748L35.2748 37.3977L31.2012 35.0952C30.9241 34.9385 30.583 34.9472 30.3141 35.118C28.7992 36.0804 27.1447 36.766 25.3966 37.156C25.0858 37.2253 24.8384 37.4602 24.7532 37.7671L23.5011 42.2745H20.4989L19.2469 37.7671C19.1616 37.4602 18.9143 37.2253 18.6034 37.156C16.8553 36.766 15.2008 36.0804 13.6859 35.118C13.417 34.9472 13.0761 34.9384 12.7988 35.0952L8.72519 37.3977L6.60232 35.2748L8.90482 31.2012C9.06153 30.9239 9.05277 30.5829 8.88198 30.3141C7.91969 28.7991 7.234 27.1446 6.84408 25.3966C6.77475 25.0857 6.53976 24.8384 6.23292 24.7532L1.72549 23.5011V20.4989L6.23292 19.2468C6.53976 19.1616 6.77475 18.9143 6.84408 18.6034C7.234 16.8554 7.91969 15.2009 8.88198 13.6859C9.05276 13.4171 9.06153 13.0761 8.90482 12.7988L6.60231 8.72518L8.72518 6.60231L12.7988 8.90481C13.0761 9.06152 13.4171 9.05279 13.6859 8.88197C15.2009 7.91968 16.8554 7.23399 18.6034 6.84407C18.9143 6.77473 19.1616 6.53975 19.2468 6.23291L20.4989 1.72548H23.5011L24.7532 6.23291C24.8384 6.53975 25.0857 6.77473 25.3966 6.84407C27.1446 7.23399 28.7991 7.91968 30.3141 8.88197C30.5828 9.05271 30.9239 9.06143 31.2012 8.90481L35.2748 6.60231L37.3977 8.72518L35.0952 12.7988C34.9385 13.0761 34.9473 13.4171 35.118 13.6859C36.0804 15.2008 36.766 16.8553 37.156 18.6034C37.2253 18.9143 37.4602 19.1616 37.7671 19.2468L42.2745 20.4989L42.2745 23.5011Z" fill="#438AFF"/>
<path d="M22 10.7844C15.8156 10.7844 10.7843 15.8158 10.7843 22.0001C10.7843 28.1845 15.8156 33.2158 22 33.2158C28.1844 33.2158 33.2157 28.1845 33.2157 22.0001C33.2157 15.8158 28.1844 10.7844 22 10.7844ZM22 31.4903C16.7671 31.4903 12.5098 27.233 12.5098 22.0001C12.5098 16.7672 16.7671 12.5099 22 12.5099C27.2329 12.5099 31.4902 16.7672 31.4902 22.0001C31.4902 27.233 27.2329 31.4903 22 31.4903Z" fill="#438AFF"/>
</svg>
