<svg width="44" height="44" viewBox="0 0 44 44" fill="none" xmlns="http://www.w3.org/2000/svg">
<path d="M40.3334 0H21.2667C20.2946 0.00116443 19.3626 0.387847 18.6753 1.07523C17.9879 1.76261 17.6012 2.69457 17.6 3.66667V9.11241C15.9111 9.58964 14.4241 10.6053 13.3651 12.0049C12.3062 13.4045 11.7332 15.1116 11.7332 16.8667C11.7332 18.6218 12.3062 20.3289 13.3651 21.7285C14.4241 23.1281 15.9111 24.1437 17.6 24.621V30.8H15.4976L15.9214 27.4062C15.9601 27.0966 15.9325 26.7824 15.8405 26.4843C15.7485 26.1863 15.5941 25.9112 15.3876 25.6773C15.1812 25.4435 14.9273 25.2562 14.643 25.1279C14.3586 24.9997 14.0502 24.9333 13.7383 24.9334H12.4667C12.2863 24.9333 12.1122 24.9998 11.9777 25.1201C11.8432 25.2404 11.7578 25.406 11.7377 25.5853L11.5705 27.0842C11.4494 28.1816 10.9677 29.2079 10.201 30.0024C9.43427 30.7968 8.42576 31.3146 7.33334 31.4747V30.8C7.33334 30.6055 7.25608 30.419 7.11855 30.2815C6.98103 30.144 6.7945 30.0667 6.60001 30.0667H0.733334C0.538842 30.0667 0.352315 30.144 0.214789 30.2815C0.0772617 30.419 0 30.6055 0 30.8V43.2667C0 43.4612 0.0772617 43.6477 0.214789 43.7853C0.352315 43.9228 0.538842 44.0001 0.733334 44.0001H6.60001C6.7945 44.0001 6.98103 43.9228 7.11855 43.7853C7.25608 43.6477 7.33334 43.4612 7.33334 43.2667V43.0563C8.62175 43.6777 10.0338 44.0003 11.4642 44.0001H18.3334C18.7876 44.001 19.2305 43.8586 19.5991 43.5931C20.114 43.8612 20.6861 44.0009 21.2667 44.0001H40.3334C41.3055 43.9989 42.2374 43.6122 42.9248 42.9248C43.6122 42.2374 43.9989 41.3055 44.0001 40.3334V3.66667C43.9989 2.69457 43.6122 1.76261 42.9248 1.07523C42.2374 0.387847 41.3055 0.00116443 40.3334 0ZM13.2 16.8667C13.2 15.5613 13.5871 14.2853 14.3123 13.1999C15.0375 12.1146 16.0683 11.2686 17.2743 10.7691C18.4803 10.2695 19.8073 10.1388 21.0876 10.3935C22.3679 10.6482 23.5439 11.2767 24.4669 12.1998C25.39 13.1228 26.0186 14.2988 26.2732 15.5791C26.5279 16.8594 26.3972 18.1864 25.8976 19.3924C25.3981 20.5984 24.5522 21.6292 23.4668 22.3544C22.3814 23.0796 21.1054 23.4667 19.8 23.4667C18.0502 23.4648 16.3726 22.7688 15.1353 21.5315C13.8979 20.2941 13.202 18.6165 13.2 16.8667ZM21.8578 35.2C21.8208 35.0813 21.7736 34.966 21.717 34.8554C21.8483 34.7718 21.9697 34.6734 22.0785 34.562C22.3096 34.3367 22.4875 34.0626 22.5993 33.7598C22.711 33.457 22.7538 33.133 22.7246 32.8116C22.676 32.2609 22.4163 31.7504 22 31.3867V24.621C23.689 24.1437 25.176 23.1281 26.2349 21.7285C27.2939 20.3289 27.8669 18.6218 27.8669 16.8667C27.8669 15.1116 27.2939 13.4045 26.2349 12.0049C25.176 10.6053 23.689 9.58964 22 9.11241V5.86667H39.6V35.2H21.8578ZM19.0667 24.896C19.3087 24.918 19.5522 24.9334 19.8 24.9334C20.0479 24.9334 20.2914 24.918 20.5334 24.896V30.8074C20.5055 30.8074 20.4791 30.8 20.4512 30.8H19.0667V24.896ZM5.86667 42.5334H1.46667V31.5334H5.86667V42.5334ZM18.3334 42.5334H11.4642C10.0099 42.5359 8.58216 42.1435 7.33334 41.3982V32.959C8.78989 32.7941 10.1471 32.1388 11.182 31.1006C12.2169 30.0625 12.868 28.7033 13.0284 27.2463L13.1267 26.4H13.742C13.846 26.4 13.9488 26.422 14.0437 26.4647C14.1385 26.5075 14.2232 26.5699 14.2921 26.6478C14.3609 26.7258 14.4124 26.8175 14.4431 26.9169C14.4738 27.0163 14.4831 27.1211 14.4702 27.2243L13.9429 31.4424C13.93 31.5453 13.9391 31.6497 13.9696 31.7488C14 31.8479 14.0511 31.9394 14.1195 32.0173C14.1879 32.0951 14.272 32.1576 14.3664 32.2006C14.4607 32.2436 14.563 32.2662 14.6667 32.2667H20.4512C20.645 32.259 20.8349 32.3224 20.9851 32.4451C21.1354 32.5678 21.2355 32.7412 21.2667 32.9326C21.2768 33.0406 21.2623 33.1496 21.2241 33.2512C21.186 33.3528 21.1254 33.4445 21.0467 33.5192C20.9802 33.588 20.9004 33.6425 20.8121 33.6793C20.7239 33.7162 20.629 33.7345 20.5334 33.7334H19.8C19.6055 33.7334 19.419 33.8106 19.2815 33.9482C19.144 34.0857 19.0667 34.2722 19.0667 34.4667C19.0667 34.6612 19.144 34.8477 19.2815 34.9853C19.419 35.1228 19.6055 35.2 19.8 35.2C19.9945 35.2 20.181 35.2773 20.3186 35.4148C20.4561 35.5524 20.5334 35.7389 20.5334 35.9334C20.5335 36.0311 20.5137 36.1278 20.4751 36.2176C20.4365 36.3074 20.38 36.3884 20.309 36.4555C20.2428 36.5232 20.1636 36.5769 20.0761 36.6131C19.9886 36.6494 19.8947 36.6677 19.8 36.6667H19.0667C18.8722 36.6667 18.6857 36.744 18.5481 36.8815C18.4106 37.019 18.3334 37.2056 18.3334 37.4C18.3334 37.5945 18.4106 37.7811 18.5481 37.9186C18.6857 38.0561 18.8722 38.1334 19.0667 38.1334C19.2612 38.1334 19.4477 38.2106 19.5852 38.3482C19.7228 38.4857 19.8 38.6722 19.8 38.8667C19.8002 38.9644 19.7803 39.0612 19.7417 39.151C19.7032 39.2407 19.6466 39.3217 19.5756 39.3889C19.5094 39.4566 19.4302 39.5102 19.3428 39.5465C19.2553 39.5828 19.1614 39.601 19.0667 39.6H18.3334C18.1389 39.6 17.9523 39.6773 17.8148 39.8148C17.6773 39.9524 17.6 40.1389 17.6 40.3334C17.6 40.5279 17.6773 40.7144 17.8148 40.8519C17.9523 40.9895 18.1389 41.0667 18.3334 41.0667C18.5278 41.0667 18.7144 41.144 18.8519 41.2815C18.9894 41.419 19.0667 41.6056 19.0667 41.8001C19.0668 41.8978 19.047 41.9945 19.0084 42.0843C18.9698 42.1741 18.9133 42.255 18.8423 42.3222C18.7761 42.3899 18.6969 42.4435 18.6094 42.4798C18.522 42.5161 18.428 42.5343 18.3334 42.5334ZM42.5334 40.3334C42.5334 40.9169 42.3016 41.4764 41.889 41.889C41.4764 42.3016 40.9169 42.5334 40.3334 42.5334H21.2667C20.9864 42.5317 20.7092 42.4754 20.4505 42.3677C20.5294 42.094 20.5524 41.8072 20.518 41.5245C20.4836 41.2417 20.3925 40.9688 20.2503 40.722C20.3817 40.6385 20.503 40.5401 20.6118 40.4287C20.8209 40.2262 20.9868 39.9833 21.0994 39.7148C21.2119 39.4464 21.2688 39.1578 21.2667 38.8667C21.2673 38.4889 21.1697 38.1175 20.9836 37.7887C21.115 37.7052 21.2363 37.6067 21.3452 37.4954C21.5809 37.2634 21.7594 36.9797 21.8666 36.6667H40.3334C40.5279 36.6667 40.7144 36.5895 40.8519 36.4519C40.9895 36.3144 41.0667 36.1279 41.0667 35.9334V5.13334C41.0667 4.93885 40.9895 4.75232 40.8519 4.61479C40.7144 4.47727 40.5279 4.40001 40.3334 4.40001H21.2667C21.0722 4.40001 20.8857 4.47727 20.7481 4.61479C20.6106 4.75232 20.5334 4.93885 20.5334 5.13334V8.83741C20.2914 8.81541 20.0479 8.80001 19.8 8.80001C19.5522 8.80001 19.3087 8.81541 19.0667 8.83741V3.66667C19.0667 3.08319 19.2985 2.52361 19.7111 2.11103C20.1236 1.69845 20.6832 1.46667 21.2667 1.46667H40.3334C40.9169 1.46667 41.4764 1.69845 41.889 2.11103C42.3016 2.52361 42.5334 3.08319 42.5334 3.66667V40.3334Z" fill="#438AFF"/>
<path d="M30.8001 37.4001C30.365 37.4001 29.9396 37.5292 29.5778 37.7709C29.2161 38.0127 28.9341 38.3562 28.7676 38.7582C28.6011 39.1602 28.5575 39.6026 28.6424 40.0293C28.7273 40.4561 28.9368 40.8481 29.2445 41.1558C29.5521 41.4635 29.9441 41.673 30.3709 41.7579C30.7977 41.8428 31.24 41.7992 31.642 41.6327C32.044 41.4662 32.3876 41.1842 32.6293 40.8224C32.8711 40.4606 33.0001 40.0353 33.0001 39.6001C33.0001 39.0167 32.7683 38.4571 32.3557 38.0445C31.9432 37.6319 31.3836 37.4001 30.8001 37.4001ZM30.8001 40.3335C30.6551 40.3335 30.5133 40.2905 30.3927 40.2099C30.2721 40.1293 30.1781 40.0148 30.1226 39.8808C30.0671 39.7468 30.0526 39.5993 30.0809 39.4571C30.1092 39.3148 30.179 39.1842 30.2816 39.0816C30.3841 38.979 30.5148 38.9092 30.657 38.8809C30.7993 38.8526 30.9467 38.8671 31.0807 38.9226C31.2147 38.9781 31.3293 39.0721 31.4098 39.1927C31.4904 39.3133 31.5334 39.4551 31.5334 39.6001C31.5334 39.7946 31.4562 39.9812 31.3186 40.1187C31.1811 40.2562 30.9946 40.3335 30.8001 40.3335Z" fill="#438AFF"/>
<path d="M32.2668 2.19995H29.3334C29.1389 2.19995 28.9524 2.27721 28.8149 2.41474C28.6774 2.55227 28.6001 2.73879 28.6001 2.93329C28.6001 3.12778 28.6774 3.3143 28.8149 3.45183C28.9524 3.58936 29.1389 3.66662 29.3334 3.66662H32.2668C32.4613 3.66662 32.6478 3.58936 32.7853 3.45183C32.9228 3.3143 33.0001 3.12778 33.0001 2.93329C33.0001 2.73879 32.9228 2.55227 32.7853 2.41474C32.6478 2.27721 32.4613 2.19995 32.2668 2.19995Z" fill="#438AFF"/>
<path d="M24.0372 14.0961C23.8997 13.9586 23.7132 13.8813 23.5187 13.8813C23.3243 13.8813 23.1378 13.9586 23.0003 14.0961L18.3333 18.763L16.4743 16.9033C16.4067 16.8332 16.3257 16.7774 16.2363 16.7389C16.1468 16.7005 16.0506 16.6803 15.9532 16.6794C15.8558 16.6786 15.7593 16.6971 15.6691 16.734C15.579 16.7709 15.4971 16.8253 15.4283 16.8942C15.3594 16.963 15.305 17.0449 15.2681 17.135C15.2312 17.2252 15.2127 17.3217 15.2135 17.4191C15.2144 17.5165 15.2346 17.6127 15.273 17.7022C15.3115 17.7916 15.3673 17.8725 15.4374 17.9402L17.8148 20.3184C17.9524 20.4559 18.1389 20.5331 18.3333 20.5331C18.5278 20.5331 18.7143 20.4559 18.8518 20.3184L24.0372 15.133C24.1747 14.9955 24.2519 14.809 24.2519 14.6145C24.2519 14.4201 24.1747 14.2336 24.0372 14.0961Z" fill="#438AFF"/>
</svg>
