<svg width="27" height="24" viewBox="0 0 27 24" fill="none" xmlns="http://www.w3.org/2000/svg">
<path d="M18.0044 9.3174L18.119 8.72277C18.3615 7.46491 18.5951 6.01337 18.5951 5.13568C18.5951 3.33238 17.9008 2.08637 17.2035 0.996914L17.2019 0.994493C17.1415 0.89887 17.0539 0.823486 16.9503 0.778002L16.9487 0.777278C16.2161 0.452392 15.6565 0.457614 15.2453 0.567891C14.8251 0.680585 14.5155 0.915375 14.3143 1.115C14.2562 1.17332 14.211 1.24331 14.1818 1.32037C14.1526 1.39764 14.1401 1.48025 14.1452 1.56272L14.1462 1.57817V1.59365C14.1462 1.54174 14.2843 3.84673 14.1485 5.06853L14.1477 5.0763L14.1466 5.08403C14.1226 5.25175 14.0497 5.44398 13.9684 5.62585C13.8819 5.8193 13.7657 6.04432 13.6266 6.29064C13.3481 6.784 12.9662 7.38366 12.5163 8.02204C11.6187 9.29564 10.429 10.7536 9.21629 11.8462L8.89421 12.1364C8.95192 12.11 9.01343 12.092 9.0769 12.0832C10.2105 11.0982 11.4519 9.64355 12.4435 8.26668C12.9601 7.54931 13.4016 6.8631 13.7199 6.28748C14.0517 5.68739 14.2105 5.27524 14.2321 5.08056L14.2321 5.08019C14.3006 4.46706 14.3017 3.59429 14.2836 2.85607C14.2747 2.49092 14.2612 2.1656 14.25 1.93162C14.2444 1.8147 14.2394 1.72077 14.2358 1.65629L14.2315 1.58252L14.2304 1.56375L14.2301 1.55916L14.23 1.55809L14.23 1.55787V1.55786L14.23 1.55784L14.2159 1.33226L14.3759 1.17259C14.7101 0.839015 15.1109 0.64043 15.5647 0.593943C16.0083 0.548497 16.4645 0.652001 16.9176 0.852833L17.0554 0.913914L17.1365 1.04098C17.8796 2.2056 18.5144 3.40534 18.5144 5.13568C18.5144 5.80182 18.3809 6.77164 18.2268 7.67811C18.121 8.3004 18.0024 8.90995 17.9023 9.40026H24.4033C24.938 9.40026 25.4508 9.61266 25.8288 9.99073C26.2069 10.3688 26.4193 10.8816 26.4193 11.4163V11.431L26.4184 11.4456L26.4171 11.4688C26.413 11.9978 26.201 12.5042 25.8267 12.8786C25.7216 12.9837 25.606 13.076 25.4825 13.1545C25.8048 13.5213 25.984 13.9939 25.984 14.4851V14.5208C25.984 15.0555 25.7716 15.5683 25.3935 15.9463C25.2479 16.092 25.0823 16.213 24.9031 16.3068C25.181 16.6603 25.3343 17.0986 25.3343 17.5528L25.3343 17.5875L25.3343 17.5886M18.0044 9.3174L24.0173 18.9369C24.1685 18.8583 24.3067 18.7542 24.4252 18.6275C24.6888 18.3458 24.8351 17.9743 24.8343 17.5886H25.3343M18.0044 9.3174H18.61H24.4011C24.9578 9.3174 25.4916 9.53853 25.8853 9.93214C26.2789 10.3258 26.5 10.8596 26.5 11.4163V11.452V11.4523C26.5003 11.9987 26.2864 12.5234 25.9042 12.9139L25.6474 13.1762L25.8207 13.4997C25.9828 13.8022 26.0673 14.1401 26.0669 14.4833V14.484V14.5189C26.0664 14.817 26.0024 15.1115 25.8792 15.383C25.756 15.6544 25.5764 15.8965 25.3524 16.0931L25.0726 16.3386L25.2276 16.6771C25.3531 16.9512 25.4178 17.2492 25.4171 17.5507V17.5517V17.5867C25.4167 17.8777 25.3557 18.1654 25.2382 18.4316C25.1206 18.6978 24.9489 18.9366 24.7341 19.1329L24.4851 19.3604L24.6029 19.6766C24.6885 19.9064 24.7325 20.1496 24.7328 20.3948C24.7326 20.9512 24.5115 21.4849 24.118 21.8784C23.7244 22.272 23.1906 22.4931 22.6339 22.4931H11.9995C11.7958 22.4873 11.4521 22.463 11.0977 22.376C10.7324 22.2863 10.4098 22.143 10.2015 21.9362C10.1812 21.9154 10.1349 21.8689 10.0635 21.8229C9.99207 21.7769 9.91164 21.7413 9.82096 21.7142C9.64749 21.6622 9.41696 21.6355 9.09601 21.6355H9.06028H8.56028V22.1355V22.4249C8.55936 22.6463 8.47099 22.8584 8.3144 23.015C8.15776 23.1716 7.94555 23.26 7.72404 23.2609C7.72386 23.2609 7.72368 23.2609 7.7235 23.2609H1.33746C1.33723 23.2609 1.33701 23.2609 1.33678 23.2609C1.1152 23.2601 0.902877 23.1718 0.746116 23.0152C0.589367 22.8586 0.500905 22.6464 0.5 22.4248V12.1394C0.500905 11.9179 0.589367 11.7056 0.746116 11.549L0.394741 11.1973L0.746117 11.549C0.902876 11.3924 1.1152 11.3041 1.33678 11.3034H7.72419C7.87102 11.304 8.01512 11.3431 8.1421 11.4168C8.26931 11.4907 8.37488 11.5966 8.44824 11.7241L8.74147 12.2337M18.0044 9.3174L8.74147 12.2337M25.3343 17.5886C25.3351 18.1012 25.1406 18.5948 24.7903 18.9691C24.6572 19.1114 24.5053 19.2324 24.3401 19.3296M25.3343 17.5886L24.3401 19.3296M24.3401 19.3296C24.3571 19.3565 24.3734 19.3839 24.3891 19.4117C24.5602 19.7144 24.65 20.0563 24.6499 20.404L24.3401 19.3296ZM8.74147 12.2337C8.73681 12.2376 8.7322 12.2417 8.72764 12.2458L8.56244 12.3947V12.6172V21.0537V21.3668L8.84414 21.5035C8.91975 21.5402 9.0023 21.5602 9.08618 21.5622L9.08617 21.5624H9.09818C9.74012 21.5624 10.041 21.6669 10.2612 21.8864C10.4271 22.0519 10.6397 22.152 10.8184 22.2158C11.0046 22.2824 11.2003 22.3256 11.3703 22.3544C11.5422 22.3834 11.6996 22.3996 11.8135 22.4086C11.8708 22.4131 11.918 22.4159 11.9516 22.4175L11.9916 22.4193L12.0033 22.4197L12.0069 22.4198L12.0081 22.4198L12.0086 22.4198L12.0088 22.4198C12.0089 22.4198 12.009 22.4198 12.0219 21.92L12.009 22.42H12.0219H22.6339C22.8987 22.42 23.1608 22.3678 23.4054 22.2665C23.65 22.1652 23.8722 22.0167 24.0594 21.8295C24.2466 21.6423 24.3951 21.4201 24.4965 21.1755C24.5977 20.9309 24.6499 20.6689 24.6499 20.4042L8.74147 12.2337ZM4.84325 20.2346L5.03482 19.7728C5.32748 19.8942 5.57754 20.0997 5.75337 20.3632C5.92911 20.6267 6.02279 20.9363 6.02258 21.253C6.02258 21.2531 6.02258 21.2533 6.02258 21.2534L5.52258 21.253C5.52258 21.3974 5.49412 21.5405 5.43883 21.674C5.38354 21.8075 5.3025 21.9287 5.20034 22.0309C5.09818 22.1331 4.9769 22.2141 4.84342 22.2694L4.84325 20.2346ZM4.84325 20.2346L5.03481 19.7728C4.74216 19.6514 4.42007 19.6196 4.10931 19.6813C3.79855 19.743 3.51308 19.8956 3.28905 20.1196C3.06501 20.3436 2.91247 20.6291 2.85074 20.9399C2.789 21.2506 2.82084 21.5727 2.94224 21.8654C3.06363 22.158 3.26911 22.4081 3.53268 22.5839C3.79624 22.7598 4.10605 22.8534 4.42289 22.8531L4.84325 20.2346ZM9.09697 12.0808L9.13888 12.4718L9.24436 12.5977L9.49289 12.1638C9.37298 12.0951 9.23442 12.066 9.09698 12.0808C9.09698 12.0808 9.09697 12.0808 9.09697 12.0808Z" stroke="white"/>
</svg>
