<svg width="36" height="36" viewBox="0 0 36 36" fill="none" xmlns="http://www.w3.org/2000/svg">
<circle cx="18" cy="18" r="18" fill="#438AFF"/>
<path d="M17.4906 26.644C16.2746 26.644 15.1226 26.452 14.0346 26.068C12.9626 25.668 12.0986 25.14 11.4426 24.484L12.2826 23.116C12.8266 23.676 13.5546 24.14 14.4666 24.508C15.3946 24.876 16.4026 25.06 17.4906 25.06C18.8826 25.06 19.9466 24.756 20.6826 24.148C21.4346 23.54 21.8106 22.724 21.8106 21.7C21.8106 20.676 21.4426 19.86 20.7066 19.252C19.9866 18.644 18.8426 18.34 17.2746 18.34H16.0746V17.068L21.2586 10.564L21.4986 11.236H12.1386V9.7H22.9386V10.924L17.7546 17.428L16.9146 16.876H17.5626C19.5786 16.876 21.0826 17.324 22.0746 18.22C23.0826 19.116 23.5866 20.268 23.5866 21.676C23.5866 22.62 23.3626 23.468 22.9146 24.22C22.4666 24.972 21.7866 25.564 20.8746 25.996C19.9786 26.428 18.8506 26.644 17.4906 26.644Z" fill="white"/>
</svg>
