<svg width="36" height="36" viewBox="0 0 36 36" fill="none" xmlns="http://www.w3.org/2000/svg">
<circle cx="18" cy="18" r="18" fill="#438AFF"/>
<path d="M17.9797 26.644C16.6357 26.644 15.4757 26.452 14.4997 26.068C13.5397 25.684 12.7957 25.132 12.2677 24.412C11.7557 23.676 11.4997 22.812 11.4997 21.82C11.4997 20.86 11.7477 20.044 12.2437 19.372C12.7557 18.684 13.4917 18.156 14.4517 17.788C15.4277 17.42 16.6037 17.236 17.9797 17.236C19.3397 17.236 20.5077 17.42 21.4837 17.788C22.4597 18.156 23.2037 18.684 23.7157 19.372C24.2437 20.044 24.5077 20.86 24.5077 21.82C24.5077 22.812 24.2437 23.676 23.7157 24.412C23.1877 25.132 22.4357 25.684 21.4597 26.068C20.4837 26.452 19.3237 26.644 17.9797 26.644ZM17.9797 25.18C19.4677 25.18 20.6277 24.876 21.4597 24.268C22.3077 23.66 22.7317 22.836 22.7317 21.796C22.7317 20.756 22.3077 19.94 21.4597 19.348C20.6277 18.74 19.4677 18.436 17.9797 18.436C16.4917 18.436 15.3317 18.74 14.4997 19.348C13.6677 19.94 13.2517 20.756 13.2517 21.796C13.2517 22.836 13.6677 23.66 14.4997 24.268C15.3317 24.876 16.4917 25.18 17.9797 25.18ZM17.9797 18.22C16.7317 18.22 15.6677 18.052 14.7877 17.716C13.9237 17.38 13.2597 16.9 12.7957 16.276C12.3317 15.636 12.0997 14.876 12.0997 13.996C12.0997 13.068 12.3397 12.276 12.8197 11.62C13.3157 10.948 14.0037 10.436 14.8837 10.084C15.7637 9.732 16.7957 9.556 17.9797 9.556C19.1637 9.556 20.1957 9.732 21.0757 10.084C21.9717 10.436 22.6677 10.948 23.1637 11.62C23.6597 12.276 23.9077 13.068 23.9077 13.996C23.9077 14.876 23.6757 15.636 23.2117 16.276C22.7477 16.9 22.0677 17.38 21.1717 17.716C20.2917 18.052 19.2277 18.22 17.9797 18.22ZM17.9797 17.068C19.2917 17.068 20.3157 16.796 21.0517 16.252C21.7877 15.708 22.1557 14.98 22.1557 14.068C22.1557 13.108 21.7717 12.364 21.0037 11.836C20.2517 11.292 19.2437 11.02 17.9797 11.02C16.7157 11.02 15.7077 11.292 14.9557 11.836C14.2037 12.364 13.8277 13.1 13.8277 14.044C13.8277 14.972 14.1877 15.708 14.9077 16.252C15.6437 16.796 16.6677 17.068 17.9797 17.068Z" fill="white"/>
</svg>
