<svg width="36" height="36" viewBox="0 0 36 36" fill="none" xmlns="http://www.w3.org/2000/svg">
<circle cx="18" cy="18" r="18" fill="#438AFF"/>
<path d="M18.8235 26.644C17.3355 26.644 16.0795 26.316 15.0555 25.66C14.0315 24.988 13.2555 24.028 12.7275 22.78C12.1995 21.516 11.9355 20.004 11.9355 18.244C11.9355 16.34 12.2555 14.748 12.8955 13.468C13.5515 12.172 14.4555 11.196 15.6075 10.54C16.7595 9.884 18.0955 9.556 19.6155 9.556C20.3675 9.556 21.0875 9.628 21.7755 9.772C22.4635 9.916 23.0715 10.148 23.5995 10.468L22.9035 11.86C22.4715 11.572 21.9755 11.372 21.4155 11.26C20.8555 11.132 20.2635 11.068 19.6395 11.068C17.8315 11.068 16.3835 11.644 15.2955 12.796C14.2235 13.948 13.6875 15.668 13.6875 17.956C13.6875 18.308 13.7035 18.748 13.7355 19.276C13.7835 19.788 13.8795 20.3 14.0235 20.812L13.4235 20.356C13.5995 19.524 13.9435 18.82 14.4555 18.244C14.9675 17.652 15.6075 17.204 16.3755 16.9C17.1435 16.596 17.9835 16.444 18.8955 16.444C20.0155 16.444 20.9995 16.652 21.8475 17.068C22.6955 17.484 23.3595 18.068 23.8395 18.82C24.3195 19.572 24.5595 20.46 24.5595 21.484C24.5595 22.524 24.3115 23.436 23.8155 24.22C23.3195 24.988 22.6315 25.588 21.7515 26.02C20.8875 26.436 19.9115 26.644 18.8235 26.644ZM18.7515 25.18C19.5515 25.18 20.2555 25.036 20.8635 24.748C21.4875 24.444 21.9755 24.02 22.3275 23.476C22.6795 22.916 22.8555 22.268 22.8555 21.532C22.8555 20.428 22.4715 19.548 21.7035 18.892C20.9515 18.236 19.9275 17.908 18.6315 17.908C17.7675 17.908 17.0155 18.068 16.3755 18.388C15.7355 18.708 15.2315 19.148 14.8635 19.708C14.4955 20.252 14.3115 20.876 14.3115 21.58C14.3115 22.188 14.4795 22.772 14.8155 23.332C15.1515 23.876 15.6475 24.324 16.3035 24.676C16.9755 25.012 17.7915 25.18 18.7515 25.18Z" fill="white"/>
</svg>
