<svg width="36" height="36" viewBox="0 0 36 36" fill="none" xmlns="http://www.w3.org/2000/svg">
<circle cx="18" cy="18" r="18" fill="#438AFF"/>
<path d="M17.2551 27.144C16.0551 27.144 14.9111 26.952 13.8231 26.568C12.7351 26.168 11.8711 25.64 11.2311 24.984L12.0711 23.616C12.5991 24.176 13.3191 24.64 14.2311 25.008C15.1591 25.376 16.1591 25.56 17.2311 25.56C18.6551 25.56 19.7351 25.248 20.4711 24.624C21.2231 23.984 21.5991 23.152 21.5991 22.128C21.5991 21.408 21.4231 20.792 21.0711 20.28C20.7351 19.752 20.1591 19.344 19.3431 19.056C18.5271 18.768 17.4071 18.624 15.9831 18.624H12.4071L13.2711 10.2H22.4631V11.736H13.9671L14.8551 10.896L14.1111 17.952L13.2231 17.088H16.3671C18.0631 17.088 19.4231 17.296 20.4471 17.712C21.4711 18.128 22.2071 18.712 22.6551 19.464C23.1191 20.2 23.3511 21.064 23.3511 22.056C23.3511 23 23.1271 23.864 22.6791 24.648C22.2311 25.416 21.5591 26.024 20.6631 26.472C19.7671 26.92 18.6311 27.144 17.2551 27.144Z" fill="white"/>
</svg>
