<svg width="36" height="36" viewBox="0 0 36 36" fill="none" xmlns="http://www.w3.org/2000/svg">
<circle cx="18" cy="18" r="18" fill="#438AFF"/>
<path d="M12.1157 26.5V25.276L19.0997 18.436C19.7397 17.812 20.2197 17.268 20.5397 16.804C20.8597 16.324 21.0757 15.876 21.1877 15.46C21.2997 15.044 21.3557 14.652 21.3557 14.284C21.3557 13.308 21.0197 12.54 20.3477 11.98C19.6917 11.42 18.7157 11.14 17.4197 11.14C16.4277 11.14 15.5477 11.292 14.7797 11.596C14.0277 11.9 13.3797 12.372 12.8357 13.012L11.6117 11.956C12.2677 11.188 13.1077 10.596 14.1317 10.18C15.1557 9.764 16.2997 9.556 17.5637 9.556C18.6997 9.556 19.6837 9.74 20.5157 10.108C21.3477 10.46 21.9877 10.98 22.4357 11.668C22.8997 12.356 23.1317 13.164 23.1317 14.092C23.1317 14.636 23.0517 15.172 22.8917 15.7C22.7477 16.228 22.4757 16.788 22.0757 17.38C21.6917 17.956 21.1237 18.612 20.3717 19.348L13.9637 25.636L13.4837 24.964H23.8997V26.5H12.1157Z" fill="white"/>
</svg>
